<svg width="148" height="48" viewBox="0 0 148 48" fill="none" xmlns="http://www.w3.org/2000/svg">
<path d="M36.0231 33.4793C35.9584 33.834 35.794 34.1628 35.5491 34.4273L27.9649 42.0115C27.9338 42.0737 27.8907 42.1293 27.8381 42.1749C27.7856 42.2205 27.7245 42.2553 27.6585 42.2773C27.5925 42.2993 27.5227 42.3081 27.4533 42.3031C27.3839 42.2982 27.3161 42.2796 27.2539 42.2485C27.1916 42.2174 27.1361 42.1743 27.0905 42.1217C27.0449 42.0692 27.0101 42.0081 26.9881 41.9421C26.9661 41.8761 26.9573 41.8063 26.9623 41.7369C26.9672 41.6675 26.9858 41.5997 27.0169 41.5375V24.9471L36.0231 15.9409V33.4793Z" fill="#E34B5F"/>
<path d="M29.862 9.77821C29.862 9.65249 29.812 9.53193 29.7231 9.44303C29.6343 9.35414 29.5137 9.3042 29.388 9.3042C29.2623 9.3042 29.1417 9.35414 29.0528 9.44303C28.9639 9.53193 28.914 9.65249 28.914 9.77821L18.0117 21.1545V33.9528L27.0179 24.9466L36.0241 15.9403L29.862 9.77821Z" fill="#E7CE9C"/>
<path d="M0 33.4793C0.0646681 33.834 0.229097 34.1628 0.474011 34.4273L8.05818 42.0115C8.12104 42.1372 8.23126 42.2328 8.3646 42.2773C8.49794 42.3217 8.64348 42.3114 8.7692 42.2485C8.89491 42.1856 8.99051 42.0754 9.03496 41.9421C9.0794 41.8087 9.06906 41.6632 9.0062 41.5375V24.9471L0 15.9409V33.4793Z" fill="#1E7889"/>
<path d="M7.11016 9.77821C7.11016 9.65249 7.06022 9.53193 6.97132 9.44303C6.88243 9.35414 6.76186 9.3042 6.63615 9.3042C6.51043 9.3042 6.38987 9.35414 6.30097 9.44303C6.21208 9.53193 6.16214 9.65249 6.16214 9.77821L0 15.9403L9.0062 24.9466L18.0124 33.9528V21.1545L7.11016 9.77821Z" fill="#97BAA6"/>
<path d="M47.4023 33.4791V16.8887H51.6684V18.7848C52.1326 17.9625 52.8318 17.2977 53.6763 16.8754C54.5209 16.4531 55.4722 16.2927 56.4085 16.4147C57.3044 16.4811 58.1679 16.7778 58.9153 17.2761C59.6628 17.7744 60.2688 18.4574 60.6746 19.2588C62.5707 17.3627 63.9927 16.4147 65.8888 16.4147C69.6808 16.4147 72.0509 18.3107 72.0509 22.5768V33.4791H67.3108V24.4729C67.3108 22.1028 66.8368 21.1548 64.9407 21.1548C63.0447 21.1548 62.0967 22.1028 62.0967 24.4729V33.4791H56.8826V24.4729C56.8826 22.1028 56.4085 21.1548 54.9865 21.1548C53.5645 21.1548 52.1424 22.1028 52.1424 24.4729V33.4791H47.4023ZM77.739 18.7848C78.9947 17.6035 80.5631 16.8075 82.2578 16.4912C83.9526 16.175 85.7024 16.3518 87.2997 17.0006C88.8969 17.6495 90.2743 18.7432 91.2683 20.1517C92.2624 21.5603 92.8312 23.2246 92.9074 24.9469C92.9415 26.08 92.7494 27.2085 92.3425 28.2665C91.9356 29.3245 91.3219 30.2908 90.5373 31.109C89.7063 32.0394 88.6815 32.7762 87.5349 33.2676C86.3883 33.759 85.148 33.993 83.9012 33.9531C82.729 33.9557 81.5704 33.7026 80.5061 33.2114C79.4418 32.7202 78.4975 32.0027 77.739 31.109C76.9544 30.2908 76.3407 29.3245 75.9338 28.2665C75.5269 27.2085 75.3349 26.08 75.369 24.9469C75.3349 23.8138 75.5269 22.6853 75.9338 21.6273C76.3407 20.5693 76.9544 19.6029 77.739 18.7848ZM83.9012 29.213C85.0326 29.213 86.1177 28.7635 86.9178 27.9635C87.7178 27.1634 88.1673 26.0783 88.1673 24.9469C88.1673 23.8783 87.7428 22.8535 86.9872 22.0979C86.2316 21.3423 85.2067 20.9178 84.1382 20.9178C83.0696 20.9178 82.0448 21.3423 81.2892 22.0979C80.5336 22.8535 80.1091 23.8783 80.1091 24.9469C80.1026 26.0008 80.4864 27.0198 81.1866 27.8075C81.8868 28.5953 82.8538 29.0959 83.9012 29.213ZM96.2254 33.4791V16.8887H100.966V18.7848C101.914 17.3627 103.336 16.4147 105.706 16.4147C109.024 16.4147 111.394 18.7848 111.394 22.5768V33.4791H106.654V24.4729C106.654 22.1028 106.18 21.1548 104.284 21.1548C102.388 21.1548 100.966 22.1028 100.966 24.4729V33.4791H96.2254ZM132.25 18.7848C133.506 17.6035 135.074 16.8075 136.769 16.4912C138.464 16.175 140.214 16.3518 141.811 17.0006C143.408 17.6495 144.786 18.7432 145.78 20.1517C146.774 21.5603 147.342 23.2246 147.419 24.9469C147.453 26.08 147.261 27.2085 146.854 28.2665C146.447 29.3245 145.833 30.2908 145.049 31.109C144.271 31.9794 143.322 32.6809 142.262 33.1701C141.202 33.6593 140.053 33.9258 138.886 33.9531C137.635 34.0278 136.384 33.8096 135.232 33.3159C134.08 32.8221 133.059 32.0665 132.25 31.109C131.466 30.2908 130.852 29.3245 130.445 28.2665C130.038 27.2085 129.846 26.08 129.88 24.9469C129.846 23.8138 130.038 22.6853 130.445 21.6273C130.852 20.5693 131.466 19.6029 132.25 18.7848ZM138.886 29.213C139.934 29.0959 140.901 28.5953 141.601 27.8075C142.301 27.0198 142.685 26.0008 142.678 24.9469C142.678 23.8783 142.254 22.8535 141.498 22.0979C140.743 21.3423 139.718 20.9178 138.649 20.9178C137.581 20.9178 136.556 21.3423 135.8 22.0979C135.045 22.8535 134.62 23.8783 134.62 24.9469C134.62 26.0783 135.07 27.1634 135.87 27.9635C136.67 28.7635 137.755 29.213 138.886 29.213ZM115.186 33.4791V30.161L121.822 21.1548H115.186V16.8887H127.51V20.6808L121.348 29.213H127.51V33.4791H115.186Z" fill="black"/>
</svg>
